# xmcd
#
# Track frame offsets:
#   150
#   16575
#   43275
#   53100
#   74700
#   95700
#   111600
#   126975
#   145125
#   162000
#   182625
#   200475
#   223875
#   244200
#
# Disc length: 3649 seconds
#
# Revision: 0
# Processed by: cddbd v1.5.2PL0 Copyright (c) Steve Scherf et al.
# Submitted via: GXTranscoder 2.0.1939
#
DISCID=dc0e3f0e
DTITLE=2Pac aka Makaveli - Makaveli VII - Tha Resurrection
DYEAR=1900
DGENRE=rap
TTITLE0=As Soon As I get Home
TTITLE1=Changes
TTITLE2=Everything they Owe
TTITLE3=This Life I Lead
TTITLE4=So Much Pain
TTITLE5=Don't Call Me Bitch
TTITLE6=Is it Cool to Fuck
TTITLE7=In His Own Words
TTITLE8=Fucking with the Wrong Nigga
TTITLE9=PYT
TTITLE10=Thug Mentality
TTITLE11=Street Life
TTITLE12=Shed so Many Tears
TTITLE13=Gotta Survive
EXTD=
EXTT0=
EXTT1=
EXTT2=
EXTT3=
EXTT4=
EXTT5=
EXTT6=
EXTT7=
EXTT8=
EXTT9=
EXTT10=
EXTT11=
EXTT12=
EXTT13=
PLAYORDER=
